<?xml version="1.0" standalone="no"?><!DOCTYPE svg PUBLIC "-//W3C//DTD SVG 1.1//EN" "http://www.w3.org/Graphics/SVG/1.1/DTD/svg11.dtd"><svg t="1487919087290" class="icon" style="" viewBox="0 0 1024 1024" version="1.1" xmlns="http://www.w3.org/2000/svg" p-id="1749" xmlns:xlink="http://www.w3.org/1999/xlink" width="32" height="32"><defs><style type="text/css"></style></defs><path d="M923.178667 253.056 760.32 253.056C781.226667 226.432 793.728 192.853333 793.728 156.416 793.728 70.186667 723.754667 0 637.824 0 586.197333 0 540.416 25.301333 512 64.128 483.584 25.301333 437.802667 0 386.176 0 300.245333 0 230.272 70.186667 230.272 156.416 230.272 192.853333 242.773333 226.432 263.68 253.056L100.821333 253.056C45.226667 253.056 0 298.453333 0 354.218667L0 480.042667C0 525.866667 30.549333 564.650667 72.234667 577.066667L72.234667 922.922667C72.234667 977.322667 116.394667 1021.610667 170.624 1021.610667L500.266667 1021.610667C503.850667 1023.146667 507.818667 1024 512 1024 516.181333 1024 520.149333 1023.146667 523.733333 1021.610667L853.376 1021.610667C907.605333 1021.610667 951.722667 977.322667 951.722667 922.922667L951.722667 577.066667C993.450667 564.650667 1024 525.866667 1024 480.042667L1024 354.218667C1024 298.453333 978.773333 253.056 923.178667 253.056L923.178667 253.056ZM637.824 60.416C690.56 60.416 733.525333 103.466667 733.525333 156.416 733.525333 209.322667 690.645333 252.416 637.909333 252.458667L542.122667 252.458667 542.122667 156.544C542.122667 156.458667 542.122667 156.373333 542.122667 156.288 542.165333 103.424 585.088 60.416 637.824 60.416L637.824 60.416ZM386.176 60.416C438.954667 60.416 481.834667 103.424 481.877333 156.373333L481.877333 252.458667 386.304 252.458667C386.218667 252.458667 386.133333 252.458667 386.005333 252.458667 333.312 252.330667 290.517333 209.322667 290.517333 156.416 290.517333 103.466667 333.44 60.416 386.176 60.416L386.176 60.416ZM60.202667 480.042667 60.202667 354.218667C60.202667 331.818667 78.506667 313.472 100.821333 313.472L481.877333 313.472 481.877333 520.789333 100.821333 520.789333C78.506667 520.789333 60.202667 502.442667 60.202667 480.042667L60.202667 480.042667ZM132.48 922.922667 132.48 581.205333 481.877333 581.205333 481.877333 961.194667 170.624 961.194667C149.589333 961.194667 132.48 944 132.48 922.922667L132.48 922.922667ZM853.376 961.194667 542.122667 961.194667 542.122667 581.205333 891.52 581.205333 891.52 922.922667C891.52 944 874.410667 961.194667 853.376 961.194667L853.376 961.194667ZM963.797333 480.042667C963.797333 502.442667 945.493333 520.789333 923.178667 520.789333L542.122667 520.789333 542.122667 313.472 923.178667 313.472C945.493333 313.472 963.797333 331.818667 963.797333 354.218667L963.797333 480.042667 963.797333 480.042667Z" p-id="1750"></path></svg>