<?xml version="1.0" standalone="no"?><!DOCTYPE svg PUBLIC "-//W3C//DTD SVG 1.1//EN" "http://www.w3.org/Graphics/SVG/1.1/DTD/svg11.dtd"><svg t="1488187104295" class="icon" style="" viewBox="0 0 1024 1024" version="1.1" xmlns="http://www.w3.org/2000/svg" p-id="3777" xmlns:xlink="http://www.w3.org/1999/xlink" width="32" height="32"><defs><style type="text/css"></style></defs><path d="M521.424138 91.275843c-238.699474 0-432.193373 193.46013-432.193373 432.193373 0 238.669798 193.493899 432.193373 432.193373 432.193373 238.70152 0 432.193373-193.522552 432.193373-432.193373C953.616488 284.735973 760.124635 91.275843 521.424138 91.275843zM804.83186 805.938566c-36.656875-83.381036-109.390409-147.099243-198.603267-171.298388 54.397934-29.951149 91.273796-87.787392 91.273796-154.286945 0-97.262184-78.831416-176.078251-176.078251-176.078251-97.244788 0-176.078251 78.816067-176.078251 176.078251 0 68.000743 38.626739 126.901225 95.105055 156.229181-88.571245 26.260084-160.149467 91.726098-194.836477 176.360683C169.142793 740.065276 121.2449 637.456317 121.2449 523.468193c0-221.035162 179.160449-400.178215 400.178215-400.178215 221.020836 0 400.178215 179.143053 400.178215 400.178215C921.602354 633.736599 876.973924 733.562165 804.83186 805.938566z" p-id="3778"></path></svg>